HIERARCHY
ROOT Hips
{
	OFFSET 0.000000 0.000000 0.000000
	CHANNELS 6 Xposition Yposition Zposition Zrotation Yrotation Xrotation 
	JOINT LHipJoint
	{
		OFFSET 0.000000 0.000000 0.000000
		CHANNELS 3 Zrotation Yrotation Xrotation
		JOINT LeftUpLeg
		{
			OFFSET 1.363060 -1.794630 0.839290
			CHANNELS 3 Zrotation Yrotation Xrotation
			JOINT LeftLeg
			{
				OFFSET 2.448110 -6.726130 0.000000
				CHANNELS 3 Zrotation Yrotation Xrotation
				JOINT LeftFoot
				{
					OFFSET 2.562200 -7.039590 0.000000
					CHANNELS 3 Zrotation Yrotation Xrotation
					JOINT LeftToeBase
					{
						OFFSET 0.157640 -0.433110 2.322550
						CHANNELS 3 Zrotation Yrotation Xrotation
						End Site
						{
							OFFSET 0.000000 0.000000 0.000000
						}
					}
				}
			}
		}
	}
	JOINT RHipJoint
	{
		OFFSET 0.000000 0.000000 0.000000
		CHANNELS 3 Zrotation Yrotation Xrotation
		JOINT RightUpLeg
		{
			OFFSET -1.305520 -1.794630 0.839290
			CHANNELS 3 Zrotation Yrotation Xrotation
			JOINT RightLeg
			{
				OFFSET -2.542530 -6.985550 0.000000
				CHANNELS 3 Zrotation Yrotation Xrotation
				JOINT RightFoot
				{
					OFFSET -2.568260 -7.056230 0.000000
					CHANNELS 3 Zrotation Yrotation Xrotation
					JOINT RightToeBase
					{
						OFFSET -0.164730 -0.452590 2.363150
						CHANNELS 3 Zrotation Yrotation Xrotation
						End Site
						{
							OFFSET 0.000000 0.000000 0.000000
						}
					}
				}
			}
		}
	}
	JOINT LowerBack
	{
		OFFSET 0.000000 0.000000 0.000000
		CHANNELS 3 Zrotation Yrotation Xrotation
		JOINT Spine
		{
			OFFSET 0.028270 2.035590 -0.193380
			CHANNELS 3 Zrotation Yrotation Xrotation
			JOINT Spine1
			{
				OFFSET 0.056720 2.048850 -0.042750
				CHANNELS 3 Zrotation Yrotation Xrotation
				JOINT Neck
				{
					OFFSET 0.000000 0.000000 0.000000
					CHANNELS 3 Zrotation Yrotation Xrotation
					JOINT Neck1
					{
						OFFSET -0.054170 1.746240 0.172020
						CHANNELS 3 Zrotation Yrotation Xrotation
						JOINT Head
						{
							OFFSET 0.104070 1.761360 -0.123970
							CHANNELS 3 Zrotation Yrotation Xrotation
							End Site
							{
								OFFSET 0.000000 0.000000 0.000000
							}
						}
					}
				}
				JOINT LeftShoulder
				{
					OFFSET 0.000000 0.000000 0.000000
					CHANNELS 3 Zrotation Yrotation Xrotation
					JOINT LeftArm
					{
						OFFSET 3.362410 1.200890 -0.311210
						CHANNELS 3 Zrotation Yrotation Xrotation
						JOINT LeftForeArm
						{
							OFFSET 4.983000 -0.000000 -0.000000
							CHANNELS 3 Zrotation Yrotation Xrotation
							JOINT LeftHand
							{
								OFFSET 3.483560 -0.000000 -0.000000
								CHANNELS 3 Zrotation Yrotation Xrotation
								JOINT LeftFingerBase
								{
									OFFSET 0.000000 0.000000 0.000000
									CHANNELS 3 Zrotation Yrotation Xrotation
									JOINT LeftHandIndex1
									{
										OFFSET 0.715260 -0.000000 -0.000000
										CHANNELS 3 Zrotation Yrotation Xrotation
										End Site
										{
											OFFSET 0.000000 0.000000 0.000000
										}
									}
								}
								JOINT LThumb
								{
									OFFSET 0.000000 0.000000 0.000000
									CHANNELS 3 Zrotation Yrotation Xrotation
									End Site
									{
										OFFSET 0.000000 0.000000 0.000000
									}
								}
							}
						}
					}
				}
				JOINT RightShoulder
				{
					OFFSET 0.000000 0.000000 0.000000
					CHANNELS 3 Zrotation Yrotation Xrotation
					JOINT RightArm
					{
						OFFSET -3.136600 1.374050 -0.404650
						CHANNELS 3 Zrotation Yrotation Xrotation
						JOINT RightForeArm
						{
							OFFSET -5.241900 -0.000000 -0.000000
							CHANNELS 3 Zrotation Yrotation Xrotation
							JOINT RightHand
							{
								OFFSET -3.444170 -0.000000 -0.000000
								CHANNELS 3 Zrotation Yrotation Xrotation
								JOINT RightFingerBase
								{
									OFFSET 0.000000 0.000000 0.000000
									CHANNELS 3 Zrotation Yrotation Xrotation
									JOINT RightHandIndex1
									{
										OFFSET -0.622530 -0.000000 -0.000000
										CHANNELS 3 Zrotation Yrotation Xrotation
										End Site
										{
											OFFSET 0.000000 0.000000 0.000000
										}
									}
								}
								JOINT RThumb
								{
									OFFSET 0.000000 0.000000 0.000000
									CHANNELS 3 Zrotation Yrotation Xrotation
									End Site
									{
										OFFSET 0.000000 0.000000 0.000000
									}
								}
							}
						}
					}
				}
			}
		}
	}
}
MOTION
Frames: 12
Frame Time: 0.008333
3.983861 15.292054 -2.092082 -171.704374 71.101608 -143.710313 -10.641855 -1.010508 -5.274308 -25.562228 2.698114 -47.517048 -2.052743 3.511460 61.708883 4.582636 13.003576 -41.644015 171.350800 0.000000 -0.269900 9.048360 1.667525 -2.440254 -0.745901 2.451882 -54.265008 -1.104017 -5.782410 76.237418 -1.889486 -7.048563 -19.767377 1.422899 -0.000000 -33.208100 -0.025193 -1.223978 11.719859 -0.275764 -0.963989 -0.662631 -3.742951 -0.878534 -1.376218 3.140761 -3.915995 -2.450211 -1.665328 -0.167204 0.962648 0.000000 0.000000 0.000000 2.892990 4.092204 -0.171105 -71.168802 -21.762431 10.271208 -179.641847 -86.823872 179.965016 3.819095 5.335489 0.171919 -0.128815 0.377407 0.000000 0.000000 0.000000 0.000000 0.000000 0.000000 0.000000 -1.416280 -0.036470 1.409976 74.082113 -17.977227 18.946247 0.217416 71.132240 -0.051107 -17.031782 2.635748 -0.429892 0.187430 -0.210167 0.000000 0.000000 0.000000 0.000000 0.000000 0.000000 0.000000 
4.148326 15.357487 -2.159724 -172.403741 70.302888 -144.270227 -10.757567 -0.946405 -5.293999 -25.284068 2.918246 -46.272239 -2.120776 3.407364 60.657332 4.412766 12.453116 -40.856436 -8.179200 -0.000000 -1.722200 8.831360 1.764117 -2.213839 -0.908297 3.031518 -55.083177 -0.956780 -5.630117 74.572532 -1.937426 -7.091512 -19.702160 1.417200 -0.000000 -33.341400 0.398566 -1.415216 11.585973 -0.175068 -1.178623 -0.683131 -3.687021 -1.096337 -1.363073 3.112458 -4.447867 -2.474499 -1.695272 -0.169433 0.962040 0.000000 0.000000 0.000000 3.758147 3.904648 -0.346717 -71.095315 -22.561093 10.088288 -179.551368 -85.307226 179.965895 3.666645 5.112481 0.157217 -0.124155 0.393445 0.000000 0.000000 0.000000 0.000000 0.000000 0.000000 0.000000 -1.336395 -0.694948 1.430738 73.390549 -19.574332 19.468332 0.212857 72.293197 -0.049280 -16.760169 2.806914 -0.448258 0.185117 -0.208944 0.000000 0.000000 0.000000 0.000000 0.000000 0.000000 0.000000 
4.314928 15.430937 -2.230474 -173.002206 69.547286 -144.729920 -10.874306 -0.878075 -5.308976 -24.963827 3.179433 -44.990615 -2.191812 3.294338 59.468225 4.207444 11.788825 -39.866932 -7.615400 -0.000000 -3.887900 8.608562 1.847430 -1.991892 -1.019957 3.554376 -55.852315 -0.796606 -5.467998 72.716740 -1.994593 -7.163672 -19.606364 1.410500 -0.000000 -33.651900 0.839269 -1.596349 11.445620 -0.071721 -1.385594 -0.703569 -3.635181 -1.307283 -1.334733 3.073578 -5.034038 -2.519745 -1.719619 -0.171044 0.955571 0.000000 0.000000 0.000000 4.523020 3.780027 -0.504167 -70.857694 -23.260162 9.907100 -179.457942 -83.784342 179.967130 3.483443 4.856810 0.140922 -0.119729 0.409020 0.000000 0.000000 0.000000 0.000000 0.000000 0.000000 0.000000 -1.295658 -1.404994 1.431564 72.715789 -21.079360 19.931410 0.206372 73.540758 -0.047554 -16.441781 2.924794 -0.456628 0.182505 -0.207871 0.000000 0.000000 0.000000 0.000000 0.000000 0.000000 0.000000 
4.483945 15.511496 -2.304423 -173.505108 68.839827 -145.089020 -10.992808 -0.806230 -5.314151 -24.599781 3.466939 -43.692856 -2.261370 3.174248 58.163890 3.967664 11.022230 -38.664874 -6.969999 0.000000 -6.306100 8.380825 1.914876 -1.771504 -1.069048 4.019909 -56.576370 -0.624436 -5.295387 70.660961 -2.059023 -7.255192 -19.460070 1.397200 0.000000 -34.197800 1.292606 -1.766486 11.289350 0.034153 -1.583814 -0.726151 -3.584731 -1.510361 -1.291503 3.024853 -5.656650 -2.581504 -1.737547 -0.172047 0.944627 0.000000 0.000000 0.000000 5.196546 3.710719 -0.644483 -70.493024 -23.845117 9.710981 -179.361011 -82.273723 179.968976 3.246100 4.557963 0.122331 -0.114716 0.424423 0.000000 0.000000 0.000000 0.000000 0.000000 0.000000 0.000000 -1.296382 -2.148465 1.415666 72.073275 -22.483575 20.330699 0.198850 74.817474 -0.045851 -16.074991 2.980051 -0.454003 0.179523 -0.206582 0.000000 0.000000 0.000000 0.000000 0.000000 0.000000 0.000000 
4.655525 15.598286 -2.381843 -173.911648 68.184065 -145.342368 -11.114684 -0.731790 -5.305295 -24.190137 3.766252 -42.403028 -2.324291 3.050175 56.774579 3.697469 10.178141 -37.247309 -6.264700 -0.000000 -9.019500 8.148601 1.963507 -1.550710 -1.041290 4.428272 -57.256083 -0.440543 -5.111392 68.395982 -2.126931 -7.348510 -19.241750 1.370301 0.000000 -34.987500 1.756845 -1.925502 11.109981 0.142951 -1.772932 -0.752197 -3.533478 -1.705211 -1.232264 2.966154 -6.304853 -2.658788 -1.748147 -0.172390 0.929568 0.000000 0.000000 0.000000 5.784245 3.698633 -0.768574 -70.036632 -24.310578 9.494972 -179.260336 -80.791475 179.971592 2.941131 4.219363 0.101642 -0.108502 0.439674 0.000000 0.000000 0.000000 0.000000 0.000000 0.000000 0.000000 -1.342006 -2.914405 1.385744 71.470968 -23.773118 20.676562 0.190838 76.073449 -0.044135 -15.674280 2.973247 -0.441384 0.176288 -0.204822 0.000000 0.000000 0.000000 0.000000 0.000000 0.000000 0.000000 
4.829866 15.690313 -2.462601 -174.235040 67.582391 -145.497629 -11.240779 -0.655245 -5.279639 -23.737487 4.062729 -41.145953 -2.375115 2.925955 55.335783 3.403805 9.292811 -35.615871 -5.527600 -0.000000 -12.014700 7.913371 1.990545 -1.327817 -0.926216 4.780283 -57.890863 -0.244937 -4.915284 65.913957 -2.192710 -7.419920 -18.928195 1.321500 0.000000 -35.999300 2.226952 -2.073579 10.902994 0.254281 -1.952802 -0.782893 -3.479432 -1.891623 -1.157979 2.899180 -6.966485 -2.751016 -1.751235 -0.172059 0.910580 0.000000 0.000000 0.000000 6.298600 3.743388 -0.877936 -69.525969 -24.649442 9.260167 -179.156134 -79.346629 179.975026 2.565666 3.851905 0.080152 -0.100670 0.454667 -0.000000 0.000000 0.000000 0.000000 0.000000 0.000000 0.000000 -1.430844 -3.689928 1.344700 70.914645 -24.943608 20.974586 0.182624 77.274160 -0.042428 -15.259172 2.914354 -0.421268 0.172969 -0.202527 0.000000 0.000000 0.000000 0.000000 0.000000 0.000000 0.000000 
5.006915 15.786590 -2.546669 -174.482227 67.033953 -145.558240 -11.372245 -0.576970 -5.236269 -23.247761 4.345601 -39.945733 -2.407702 2.805800 53.883484 3.093904 8.406409 -33.760154 -4.784000 -0.000000 -15.483300 7.676913 1.992804 -1.101406 -0.716469 5.078686 -58.477254 -0.036855 -4.706383 63.208827 -2.249142 -7.442136 -18.495707 1.242801 0.000000 -37.196101 2.696727 -2.211038 10.667010 0.367246 -2.123307 -0.819035 -3.421698 -2.069351 -1.071122 2.826781 -7.629908 -2.857835 -1.747060 -0.171064 0.887742 0.000000 0.000000 0.000000 6.754904 3.841851 -0.974160 -68.996261 -24.854751 9.013130 -179.049508 -77.947632 179.979208 2.128057 3.470967 0.059160 -0.091083 0.469176 -0.000000 0.000000 0.000000 0.000000 0.000000 0.000000 0.000000 -1.558137 -4.461934 1.295301 70.408234 -25.998413 21.227596 0.174359 78.398956 -0.040762 -14.852833 2.820981 -0.397257 0.169791 -0.199804 0.000000 0.000000 0.000000 0.000000 0.000000 0.000000 0.000000 
5.186706 15.886093 -2.633582 -174.678683 66.538272 -145.546794 -11.507848 -0.496652 -5.176645 -22.733848 4.605860 -38.822026 -2.419350 2.694070 52.458369 2.779734 7.557354 -31.715391 -4.065500 -0.000000 -19.157600 7.442850 1.968038 -0.870142 -0.412195 5.325226 -59.010500 0.184784 -4.484169 60.279430 -2.287584 -7.386083 -17.922550 1.127700 0.000000 -38.520101 3.154824 -2.338377 10.403566 0.479504 -2.284396 -0.861299 -3.360370 -2.238150 -0.976547 2.754970 -8.279931 -2.978172 -1.736979 -0.169497 0.861324 0.000000 0.000000 0.000000 7.172952 3.986649 -1.058546 -68.478019 -24.918823 8.764745 -178.942323 -76.601394 179.983951 1.646251 3.094246 0.040361 -0.079909 0.482892 0.000000 0.000000 0.000000 0.000000 0.000000 0.000000 0.000000 -1.710728 -5.213122 1.239865 69.956076 -26.954225 21.425611 0.166101 79.444841 -0.039198 -14.472887 2.714177 -0.372848 0.166918 -0.196917 0.000000 0.000000 0.000000 0.000000 0.000000 0.000000 0.000000 
5.369118 15.987793 -2.722910 -174.839767 66.092327 -145.479786 -11.648352 -0.413865 -5.104997 -22.205202 4.847815 -37.789834 -2.405125 2.595187 51.088226 2.466434 6.775143 -29.448125 -3.382500 0.000000 -23.485800 7.214419 1.913855 -0.633641 -0.013023 5.525606 -59.480119 0.421911 -4.247398 57.126599 -2.299195 -7.227927 -17.187860 0.973100 0.000001 -39.934200 3.593632 -2.455786 10.118586 0.589365 -2.435610 -0.909043 -3.296013 -2.397313 -0.878074 2.687293 -8.911017 -3.112282 -1.721755 -0.167391 0.831142 0.000000 0.000000 0.000000 7.566384 4.168693 -1.132533 -67.990869 -24.838912 8.526825 -178.836880 -75.310542 179.988975 1.146297 2.740365 0.024856 -0.067614 0.495438 -0.000000 0.000000 0.000000 0.000000 0.000000 0.000000 0.000000 -1.880910 -5.935600 1.180999 69.561397 -27.820900 21.567271 0.157890 80.412424 -0.037799 -14.139003 2.616926 -0.351640 0.164573 -0.194192 0.000000 0.000000 0.000000 0.000000 0.000000 0.000000 0.000000 
5.554048 16.090679 -2.813949 -174.993119 65.693665 -145.386881 -11.791017 -0.328133 -5.027065 -21.678382 5.073553 -36.855409 -2.367333 2.512321 49.806638 2.165601 6.074462 -27.022289 -2.755100 -0.000000 -27.958800 6.996605 1.829890 -0.391464 0.472576 5.682043 -59.876964 0.676598 -3.994810 53.758955 -2.275137 -6.948842 -16.276101 0.780300 0.000000 -41.409400 4.000542 -2.563629 9.819379 0.693612 -2.576639 -0.961717 -3.230452 -2.546239 -0.781392 2.630462 -9.512222 -3.258728 -1.703360 -0.164884 0.797530 0.000000 0.000000 0.000000 7.951806 4.375629 -1.197067 -67.549832 -24.613544 8.313891 -178.735987 -74.079989 179.993961 0.657043 2.423709 0.012943 -0.054853 0.506499 -0.000000 0.000000 0.000000 0.000000 0.000000 0.000000 0.000000 -2.052119 -6.615830 1.120423 69.228630 -28.622295 21.636773 0.149724 81.317954 -0.036607 -13.856626 2.549153 -0.335931 0.162803 -0.192009 0.000000 0.000000 0.000000 0.000000 0.000000 0.000000 0.000000 
5.741290 16.193785 -2.906132 -175.153698 65.338789 -145.289112 -11.936135 -0.239182 -4.950370 -21.161513 5.300207 -36.020242 -2.304221 2.448269 48.625013 1.879151 5.459987 -24.397602 -2.179400 0.000000 -33.125999 6.793325 1.716575 -0.144488 1.039377 5.801091 -60.187222 0.951066 -3.724023 50.189313 -2.208551 -6.542907 -15.176107 0.555800 0.000000 -42.949200 4.369585 -2.662021 9.516475 0.790446 -2.706891 -1.017655 -3.165450 -2.684052 -0.690704 2.587817 -10.081468 -3.416798 -1.682858 -0.162042 0.760545 0.000000 0.000000 0.000000 8.337036 4.593053 -1.252872 -67.158310 -24.243487 8.136056 -178.642540 -72.912358 179.998582 0.207734 2.155972 0.004623 -0.042382 0.515770 0.000000 0.000000 0.000000 0.000000 0.000000 0.000000 0.000000 -2.215784 -7.249256 1.060367 68.962050 -29.371885 21.628753 0.141613 82.175273 -0.035653 -13.630003 2.528321 -0.327721 0.161656 -0.190711 0.000000 0.000000 0.000000 0.000000 0.000000 0.000000 0.000000 
5.930601 16.296024 -2.998851 -175.341327 65.024103 -145.213320 -12.080219 -0.147401 -4.881964 -20.667911 5.535692 -35.276049 -2.223811 2.403612 47.566185 1.615283 4.911690 -21.675117 -1.665900 0.000001 -38.104600 6.609347 1.577537 0.105881 1.675197 5.883713 -60.401183 1.246731 -3.432794 46.441610 -2.094647 -6.013248 -13.885415 0.311400 0.000000 -44.577100 4.692141 -2.751501 9.219781 0.877223 -2.826327 -1.075267 -3.103357 -2.810425 -0.610012 2.563826 -10.614345 -3.584788 -1.661865 -0.158988 0.720586 0.000000 0.000000 0.000000 8.730130 4.809194 -1.300501 -66.817870 -23.734891 8.005702 -178.559347 -71.813194 -179.997439 -0.176586 1.942488 -0.000802 -0.030950 0.523091 -0.000000 0.000000 0.000000 0.000000 0.000000 0.000000 0.000000 -2.359418 -7.829553 1.001918 68.765020 -30.089107 21.531462 0.133513 83.006129 -0.034937 -13.449464 2.565250 -0.327708 0.161003 -0.190578 0.000000 0.000000 0.000000 0.000000 0.000000 0.000000 0.000000 
